{
  "accessors": [
    {
      "bufferView": 2,
      "componentType": 5126,
      "count": 32152,
      "max": [
        0.5955079793930054,
        0.8937410116195679,
        0.3268679976463318
      ],
      "min": [
        -0.5485389828681946,
        -0.7235910296440125,
        0.0040270001627504826
      ],
      "type": "VEC3"
    },
    {
      "bufferView": 2,
      "byteOffset": 385824,
      "componentType": 5126,
      "count": 32152,
      "max": [
        0.9999998807907104,
        0.9999947547912598,
        1.0
      ],
      "min": [
        -0.9999998807907104,
        -1.0,
        -1.0
      ],
      "type": "VEC3"
    },
    {
      "bufferView": 3,
      "componentType": 5126,
      "count": 32152,
      "max": [
        0.999998927116394,
        0.9999997019767761,
        0.9999727010726929,
        1.0
      ],
      "min": [
        -0.9999998211860657,
        -1.0,
        -0.9999958276748657,
        -1.0
      ],
      "type": "VEC4"
    },
    {
      "bufferView": 1,
      "componentType": 5126,
      "count": 32152,
      "max": [
        0.9999979734420776,
        0.9999480247497559
      ],
      "min": [
        3.5000000934815034e-05,
        9.999999747378752e-06
      ],
      "type": "VEC2"
    },
    {
      "bufferView": 0,
      "componentType": 5125,
      "count": 172620,
      "type": "SCALAR"
    }
  ],
  "asset": {
    "extras": {
      "author": "Lassi Kaukonen (https://sketchfab.com/thesidekick)",
      "license": "CC-BY-4.0 (http://creativecommons.org/licenses/by/4.0/)",
      "source": "https://sketchfab.com/3d-models/arduino-uno-r3-elegoo-69d58a27ae814b429e39b2c19d648cdd",
      "title": "Arduino Uno R3, Elegoo"
    },
    "generator": "Sketchfab-15.19.0",
    "version": "2.0"
  },
  "bufferViews": [
    {
      "buffer": 0,
      "byteLength": 690480,
      "name": "floatBufferViews",
      "target": 34963
    },
    {
      "buffer": 0,
      "byteLength": 257216,
      "byteOffset": 690480,
      "byteStride": 8,
      "name": "floatBufferViews",
      "target": 34962
    },
    {
      "buffer": 0,
      "byteLength": 771648,
      "byteOffset": 947696,
      "byteStride": 12,
      "name": "floatBufferViews",
      "target": 34962
    },
    {
      "buffer": 0,
      "byteLength": 514432,
      "byteOffset": 1719344,
      "byteStride": 16,
      "name": "floatBufferViews",
      "target": 34962
    }
  ],
  "buffers": [
    {
      "byteLength": 2233776,
      "uri": "scene.bin"
    }
  ],
  "extensionsUsed": [
    "KHR_materials_specular"
  ],
  "images": [
    {
      "uri": "textures/Arduino_Uno_R3_Elegoo_Lowpoly_baseColor.jpeg"
    },
    {
      "uri": "textures/Arduino_Uno_R3_Elegoo_Lowpoly_metallicRoughness.png"
    },
    {
      "uri": "textures/Arduino_Uno_R3_Elegoo_Lowpoly_normal.png"
    }
  ],
  "materials": [
    {
      "doubleSided": true,
      "extensions": {
        "KHR_materials_specular": {
          "specularColorFactor": [
            1.0,
            1.0,
            1.0
          ],
          "specularFactor": 0.09600029257232022
        }
      },
      "name": "Arduino_Uno_R3_Elegoo_Lowpoly",
      "normalTexture": {
        "index": 2,
        "scale": 0.4921919762041179
      },
      "occlusionTexture": {
        "index": 1
      },
      "pbrMetallicRoughness": {
        "baseColorTexture": {
          "index": 0
        },
        "metallicRoughnessTexture": {
          "index": 1
        }
      }
    }
  ],
  "meshes": [
    {
      "name": "Object_0",
      "primitives": [
        {
          "attributes": {
            "NORMAL": 1,
            "POSITION": 0,
            "TANGENT": 2,
            "TEXCOORD_0": 3
          },
          "indices": 4,
          "material": 0,
          "mode": 4
        }
      ]
    }
  ],
  "nodes": [
    {
      "children": [
        1
      ],
      "matrix": [
        1.0,
        0.0,
        0.0,
        0.0,
        0.0,
        2.220446049250313e-16,
        -1.0,
        0.0,
        0.0,
        1.0,
        2.220446049250313e-16,
        0.0,
        0.0,
        0.0,
        0.0,
        1.0
      ],
      "name": "Sketchfab_model"
    },
    {
      "children": [
        2
      ],
      "name": "Arduino_Uno_R3_Elegoo_Lowpoly_SF.obj.cleaner.materialmerger.gles"
    },
    {
      "mesh": 0,
      "name": "Object_2"
    }
  ],
  "samplers": [
    {
      "magFilter": 9729,
      "minFilter": 9987,
      "wrapS": 10497,
      "wrapT": 10497
    }
  ],
  "scene": 0,
  "scenes": [
    {
      "name": "Sketchfab_Scene",
      "nodes": [
        0
      ]
    }
  ],
  "textures": [
    {
      "sampler": 0,
      "source": 0
    },
    {
      "sampler": 0,
      "source": 1
    },
    {
      "sampler": 0,
      "source": 2
    }
  ]
}
